<svg width="39" height="36" viewBox="0 0 39 36" fill="none" xmlns="http://www.w3.org/2000/svg">
<path d="M35.8875 13.3101V32.9711C35.8875 34.2952 34.7397 35.369 33.3243 35.369H5.12927C3.71391 35.369 2.56609 34.2952 2.56609 32.9711C2.56609 14.3841 2.5644 17.8659 2.57169 13.3101H35.8875Z" fill="#D1E7FF"/>
<path d="M35.8875 13.3101V17.8509C35.8875 18.8336 35.0454 19.6477 33.995 19.6517C33.9833 19.6518 4.47883 19.6518 4.45752 19.6517C3.40741 19.6474 2.56597 18.8333 2.56597 17.8509C2.56597 16.5403 2.56501 17.4452 2.57157 13.3101H35.8875Z" fill="#B9DCFF"/>
<path d="M25.7147 24.6533V35.3689H12.7385V24.6533C12.7385 23.3292 13.8864 22.2554 15.3017 22.2554H23.1515C24.5669 22.2554 25.7147 23.3292 25.7147 24.6533Z" fill="#E8F3FF"/>
<path d="M37.8097 13.3099C37.8097 15.7091 35.7301 17.6561 33.164 17.6561C30.5984 17.6561 28.5182 15.7101 28.5182 13.3099C28.5182 15.7101 26.438 17.6561 23.8724 17.6561C21.3068 17.6561 19.2266 15.7101 19.2266 13.3099C19.2266 15.7101 17.1464 17.6561 14.5809 17.6561C12.0153 17.6561 9.93508 15.7101 9.93508 13.3099C9.93108 15.6944 7.83327 17.6561 5.28931 17.6561C2.74847 17.6561 0.647537 15.6968 0.643532 13.3099C0.643532 9.53266 0.632479 9.76511 0.671567 9.59171C0.710015 9.42154 0.443524 10.0241 4.47389 1.32197C4.67735 0.88361 5.13952 0.599609 5.64976 0.599609H32.8035C33.3137 0.599609 33.7759 0.88361 33.9794 1.32197C38.0127 10.0305 37.7432 9.42139 37.7817 9.59171C37.8207 9.76473 37.8097 9.52854 37.8097 13.3099Z" fill="#B9DCFF"/>
<path d="M37.8099 13.31C37.8099 15.7091 35.7303 17.6561 33.1641 17.6561C30.5985 17.6561 28.5184 15.7101 28.5184 13.31C28.5184 15.7101 26.4382 17.6561 23.8726 17.6561C21.307 17.6561 19.2268 15.7101 19.2268 13.31C19.2268 15.7101 17.1466 17.6561 14.581 17.6561C12.0154 17.6561 9.93524 15.7101 9.93524 13.31C9.93123 15.6943 7.83342 17.6561 5.28946 17.6561C2.74862 17.6561 0.647683 15.6968 0.643678 13.31C0.63735 9.51207 0.638311 9.73994 0.671713 9.5918H37.7819C37.8209 9.76482 37.8099 9.52863 37.8099 13.31Z" fill="#A2D0FF"/>
<path d="M32.4573 3.80293C24.321 2.75534 16.1096 4.09899 9.46809 8.78078C8.72052 9.30779 7.80931 9.5918 6.87326 9.5918H0.671631C0.710079 9.42162 0.443587 10.0242 4.47396 1.32198C4.67741 0.883613 5.13959 0.599609 5.64982 0.599609H32.8036C33.3143 0.599609 33.7762 0.883313 33.9793 1.32168L34.1578 1.707C34.6581 2.78703 33.7038 3.96344 32.4573 3.80293Z" fill="#D1E7FF"/>
<path d="M36.5282 20.3073V32.9713C36.5282 34.6241 35.0909 35.9687 33.3242 35.9687H5.12915C3.36247 35.9687 1.92517 34.6241 1.92517 32.9713V20.3073C1.92517 19.9763 2.21208 19.7078 2.56596 19.7078C2.91984 19.7078 3.20676 19.9763 3.20676 20.3073V32.9713C3.20676 33.963 4.06911 34.7697 5.12915 34.7697H12.0978V24.6535C12.0978 23.0008 13.5351 21.6561 15.3018 21.6561H23.1516C24.9182 21.6561 26.3555 23.0008 26.3555 24.6535V32.3718C26.3555 32.7029 26.0686 32.9713 25.7147 32.9713C25.3609 32.9713 25.0739 32.7029 25.0739 32.3718V24.6535C25.0739 23.6619 24.2115 22.8551 23.1516 22.8551H15.3018C14.2418 22.8551 13.3794 23.6619 13.3794 24.6535V34.7697H18.5859V25.328C18.5859 24.9969 18.8728 24.7285 19.2267 24.7285C19.5806 24.7285 19.8675 24.9969 19.8675 25.328V34.7697H33.3242C34.3842 34.7697 35.2466 33.963 35.2466 32.9713V20.3073C35.2466 19.9763 35.5335 19.7078 35.8874 19.7078C36.2413 19.7078 36.5282 19.9762 36.5282 20.3073ZM4.16795 9.59165C4.16795 9.92271 4.45487 10.1911 4.80875 10.1911C39.6735 10.1911 37.9449 10.2494 38.1996 10.0667C38.3328 9.97082 38.4198 9.83257 38.4437 9.6746C38.4794 9.43369 38.7094 10.0261 34.2325 0.361111C34.1309 0.141851 33.9 0 33.6445 0H4.80867C4.55331 0 4.32223 0.141926 4.22074 0.361111L0.0555615 9.35328C-0.0180501 9.51229 0.00269573 9.25991 0.00269573 13.3108C0.00734151 16.0373 2.37885 18.2555 5.28927 18.2555C7.29008 18.2555 9.03617 17.2072 9.93368 15.6661C11.9383 19.1123 17.2183 19.1162 19.2266 15.6684C21.2333 19.1134 26.511 19.1141 28.5182 15.6684C29.415 17.2082 31.1613 18.2555 33.1639 18.2555C36.079 18.2555 38.4505 16.0369 38.4505 13.3098C38.4505 12.9788 38.1636 12.7104 37.8097 12.7104C37.4558 12.7104 37.1689 12.9788 37.1689 13.3098C37.1689 15.3758 35.3723 17.0566 33.1639 17.0566C30.9556 17.0566 29.1589 15.3758 29.1589 13.3098C29.1589 12.9788 28.872 12.7104 28.5182 12.7104C28.1643 12.7104 27.8774 12.9788 27.8774 13.3098C27.8774 15.3758 26.0807 17.0566 23.8724 17.0566C21.664 17.0566 19.8674 15.3758 19.8674 13.3098C19.8674 12.9788 19.5805 12.7104 19.2266 12.7104C18.8727 12.7104 18.5858 12.9788 18.5858 13.3098C18.5858 15.3758 16.7892 17.0566 14.5808 17.0566C12.4216 17.0566 10.5758 15.4332 10.5758 13.2799C10.5758 12.9488 10.2889 12.6804 9.93505 12.6804C9.58117 12.6804 9.29425 12.9488 9.29425 13.2799C9.29425 15.415 7.46005 17.0566 5.28927 17.0566C3.08445 17.0566 1.28773 15.3753 1.28429 13.3098V9.71589L5.22943 1.19896H33.2239L36.8337 8.99217H4.80875C4.45479 8.99217 4.16795 9.26051 4.16795 9.59165Z" fill="#007FFC"/>
</svg>
