<svg width="25" height="36" viewBox="0 0 25 36" fill="none" xmlns="http://www.w3.org/2000/svg">
<path d="M20.8309 0.599609C22.2466 0.599609 23.3947 1.67367 23.3947 2.99806V32.9787C23.3947 34.3031 22.2466 35.3771 20.8309 35.3771H3.20489C1.78921 35.3771 0.641113 34.3031 0.641113 32.9787V2.99806C0.641113 1.67367 1.78921 0.599609 3.20489 0.599609H20.8309Z" fill="#D1E7FF"/>
<path d="M16.0491 13.4702C16.6628 13.4702 17.1772 13.9027 17.2437 14.4731L18.101 21.8393C18.1787 22.5041 17.6219 23.085 16.9064 23.085H7.12881C6.41336 23.085 5.85654 22.5041 5.93425 21.8393L6.79152 14.4731C6.85801 13.9027 7.37237 13.4702 7.98607 13.4702H16.0491Z" fill="#B9DCFF"/>
<path d="M20.952 0.602254C23.0139 0.691971 22.9045 3.59769 20.8404 3.59769H12.4986C7.7198 3.59769 3.84584 7.22182 3.84584 11.6925V35.3771H3.2049C1.78897 35.3771 0.641113 34.3033 0.641113 32.9787V2.99808C0.641113 1.67346 1.78897 0.599631 3.2049 0.599631C3.32091 0.599631 20.858 0.598132 20.952 0.602254Z" fill="#E8F3FF"/>
<path d="M23.3947 30.1306V32.9788C23.3947 34.3031 22.2466 35.3772 20.8309 35.3772H3.20489C1.78921 35.3772 0.641113 34.3031 0.641113 32.9788V30.1306H23.3947Z" fill="#B9DCFF"/>
<path d="M3.84583 30.1306V32.9877C3.84583 34.9409 0.641113 35.0408 0.641113 32.9787V30.1306H3.84583Z" fill="#D1E7FF"/>
<path d="M16.0494 15.7188C12.1671 15.7188 8.99365 18.4529 8.58393 21.9752C8.51046 22.6067 7.94042 23.085 7.26141 23.085H7.12882C6.41336 23.085 5.85654 22.5041 5.93425 21.8393L6.79152 14.4731C6.85802 13.9027 7.37238 13.4702 7.98609 13.4702H16.0492C16.6624 13.4702 17.1774 13.9022 17.2437 14.4726C17.3213 15.1392 16.7635 15.7188 16.0494 15.7188Z" fill="#D1E7FF"/>
<path d="M20.8307 0H3.20472C1.43764 0 0 1.34493 0 2.99806V32.9787C0 34.6318 1.43764 35.9767 3.20472 35.9767H20.8307C22.5978 35.9767 24.0354 34.6318 24.0354 32.9787V2.99806C24.0354 1.34493 22.5978 0 20.8307 0ZM20.8307 34.7775H3.20472C2.14452 34.7775 1.28189 33.9706 1.28189 32.9787V2.99806C1.28189 2.00615 2.14452 1.19922 3.20472 1.19922H20.8307C21.8909 1.19922 22.7535 2.00615 22.7535 2.99806V29.5309H4.40649C4.05253 29.5309 3.76555 29.7994 3.76555 30.1305C3.76555 30.4617 4.05253 30.7301 4.40649 30.7301H22.7535V32.9787C22.7535 33.9706 21.8909 34.7775 20.8307 34.7775ZM13.4598 32.6039C13.4598 32.9351 13.1728 33.2035 12.8189 33.2035H11.2165C10.8626 33.2035 10.5756 32.9351 10.5756 32.6039C10.5756 32.2728 10.8626 32.0043 11.2165 32.0043H12.8189C13.1728 32.0043 13.4598 32.2728 13.4598 32.6039ZM7.1289 23.6847H16.9065C18.0027 23.6847 18.857 22.7931 18.7384 21.7743L17.8812 14.4083C17.7792 13.5319 16.9916 12.8711 16.0493 12.8711H15.456V11.7609C15.4559 9.98737 13.9135 8.54448 12.0177 8.54448C10.1219 8.54448 8.57952 9.98737 8.57952 11.7609V12.871H7.98616C7.04381 12.871 6.25633 13.5318 6.15426 14.4083L5.29708 21.7743C5.17843 22.7937 6.03337 23.6847 7.1289 23.6847ZM6.57136 21.904L7.42854 14.5381C7.45963 14.2714 7.69926 14.0702 7.98608 14.0702H8.57944V15.0058C8.57944 15.337 8.86642 15.6054 9.22038 15.6054C9.57434 15.6054 9.86132 15.337 9.86132 15.0058V11.7609C9.86132 10.6487 10.8286 9.7437 12.0176 9.7437C13.2067 9.7437 14.1739 10.6486 14.1739 11.7609V12.8711H11.4015C11.0476 12.8711 10.7606 13.1395 10.7606 13.4707C10.7606 13.8018 11.0476 14.0703 11.4015 14.0703H14.1739V15.0058C14.1739 15.337 14.4609 15.6054 14.8149 15.6054C15.1688 15.6054 15.4558 15.337 15.4558 15.0058V14.0703H16.0492C16.336 14.0703 16.5756 14.2715 16.6067 14.5381L17.4639 21.904C17.4999 22.2141 17.2418 22.4855 16.9063 22.4855H7.1289C6.79497 22.4855 6.53522 22.2153 6.57136 21.904Z" fill="#007FFC"/>
</svg>
