<svg width="39" height="35" viewBox="0 0 39 35" fill="none" xmlns="http://www.w3.org/2000/svg">
<path d="M33.0268 16.4061C33.7952 17.6511 32.8738 19.2146 31.3379 19.2701C25.7296 19.4754 20.0113 20.7858 14.62 23.3655L12.8373 24.3279C12.8373 24.3355 12.8127 24.2886 17.1526 31.3495C17.5508 31.9956 17.3144 32.8209 16.6246 33.1941L15.2185 33.9534C14.5287 34.3259 13.6457 34.1048 13.2475 33.4587L8.91865 26.4446L8.216 26.8246C6.83553 27.5696 5.07048 27.1274 4.27328 25.836L1.02682 20.5757C0.230423 19.2843 0.703131 17.6331 2.0836 16.8873L8.4876 13.4282C13.3817 10.4665 17.529 6.54493 20.6378 1.93185C21.4575 0.715359 23.3651 0.750586 24.1335 1.99556L26.9112 6.49726C28.5072 5.6353 30.5487 6.14723 31.4701 7.6403C32.3914 9.13337 31.8442 11.0424 30.2482 11.9044L33.0268 16.4061Z" fill="#D1E7FF"/>
<path d="M31.47 7.64028C32.3914 9.13336 31.8441 11.0424 30.2481 11.9044L26.9111 6.49723C28.5071 5.63525 30.5486 6.14719 31.47 7.64028Z" fill="#D1E7FF"/>
<path d="M24.1335 1.99553C24.5168 2.61719 24.4922 3.38839 24.068 3.98637C20.6459 8.81013 16.0592 13.1689 10.4497 16.5642L2.94649 20.6169C2.43132 20.8957 2.02351 21.2817 1.73828 21.7277L1.02682 20.5757C0.230423 19.2842 0.703131 17.633 2.0836 16.8872L8.4876 13.4281C13.3817 10.4664 17.529 6.54489 20.6378 1.93182C21.4574 0.715331 23.3651 0.750634 24.1335 1.99553Z" fill="#E8F3FF"/>
<path d="M8.4876 13.4282L14.62 23.3655C13.3911 24.0289 9.44311 26.161 8.21599 26.8246C6.83552 27.5696 5.07048 27.1274 4.27328 25.836L1.02682 20.5758C0.230423 19.2843 0.703131 17.6331 2.0836 16.8873L8.4876 13.4282Z" fill="#B9DCFF"/>
<path d="M10.4296 16.5755C2.28098 20.9763 2.82099 20.6701 2.55811 20.8615C2.06305 21.2218 1.34053 21.0838 1.02669 20.5757C0.2303 19.2843 0.703009 17.6331 2.08348 16.8873L8.48748 13.4282L10.4296 16.5755Z" fill="#D1E7FF"/>
<path d="M14.0046 26.2274C11.7247 27.4623 13.4021 26.5535 10.0899 28.3417L8.91858 26.4447L12.8373 24.3289L14.0046 26.2274Z" fill="#B9DCFF"/>
<path d="M31.2705 11.047C31.0061 11.3865 30.6624 11.6811 30.2481 11.9044L26.9111 6.49739C27.3254 6.27329 27.77 6.14287 28.2163 6.0979C28.3842 6.37013 31.1239 10.8096 31.2705 11.047Z" fill="#B9DCFF"/>
<path d="M31.0977 12.0813C33.5992 10.1698 32.7351 6.38977 29.6094 5.60636C28.7927 5.40166 27.9472 5.44423 27.1721 5.72044L24.6885 1.69612C23.6779 0.058468 21.1713 0.0150702 20.0952 1.6118C17.0404 6.14452 12.9708 9.99967 8.13922 12.9252C7.86409 13.0914 7.7621 13.435 7.9249 13.7147C7.95102 13.7594 12.0649 20.4245 12.0921 20.4686C12.269 20.7552 12.6608 20.8537 12.9677 20.6881C13.2742 20.5225 13.3792 20.1558 13.2023 19.869L9.34447 13.6179C13.9515 10.7367 18.0317 6.92224 21.1796 2.25138C21.7426 1.41587 23.0513 1.44181 23.5783 2.29575L32.4713 16.7056C32.999 17.5606 32.3664 18.6328 31.313 18.6712C25.4036 18.8866 19.6179 20.3006 14.3281 22.8316C14.3056 22.8423 8.30812 26.0822 7.8951 26.3052C6.82301 26.8843 5.44735 26.5394 4.8285 25.5365L1.58195 20.2758C0.963022 19.2729 1.33165 17.9859 2.40366 17.4069L6.31104 15.2965C6.61758 15.1309 6.72262 14.7641 6.54563 14.4774C6.36865 14.1905 5.97654 14.0923 5.67008 14.2579L1.7627 16.3684C0.0785755 17.2779 -0.500533 19.2998 0.471805 20.8754L3.71843 26.1361C4.69085 27.7117 6.85209 28.2533 8.53622 27.3437L8.68404 27.2639L12.6924 33.7588C13.2681 34.6917 14.5412 35.0113 15.539 34.4724L16.9449 33.7131C17.9424 33.1743 18.2836 31.9832 17.7077 31.05L14.8668 26.4469C14.6898 26.1601 14.2978 26.0618 13.9913 26.2274C13.6847 26.393 13.5797 26.7597 13.7567 27.0465L16.5975 31.6496C16.8191 32.0087 16.6879 32.4671 16.3039 32.6744L14.8981 33.4338C14.5142 33.6411 14.0242 33.5183 13.8026 33.1592L9.79427 26.6642L14.9264 23.8923C19.9484 21.4918 25.5353 20.0818 31.363 19.8694C33.3827 19.7958 34.5907 17.7408 33.5815 16.1059L31.0977 12.0813ZM30.9147 7.9398C31.5474 8.96516 31.3201 10.2376 30.4442 11.0223L27.8255 6.77893C28.9735 6.4639 30.2717 6.89788 30.9147 7.9398ZM37.1837 5.27394L35.5253 6.16971C35.2186 6.33535 34.8267 6.23694 34.6498 5.95024C34.4727 5.66347 34.5778 5.29673 34.8844 5.13115L36.5428 4.23539C36.8496 4.06974 37.2414 4.16815 37.4183 4.45485C37.5953 4.74162 37.4903 5.10837 37.1837 5.27394ZM30.0516 1.85637L30.4561 0.444552C30.5477 0.124652 30.899 -0.0650548 31.2411 0.0205418C31.5831 0.106288 31.786 0.435108 31.6943 0.754934L31.2899 2.16675C31.1984 2.48583 30.8478 2.67651 30.5048 2.59076C30.1629 2.50502 29.96 2.17627 30.0516 1.85637ZM38.4347 11.6767C38.3579 11.9446 38.099 12.1212 37.8159 12.1212C37.6999 12.1212 37.781 12.1336 36.1404 11.7223C35.7985 11.6366 35.5955 11.3078 35.6872 10.9879C35.7788 10.668 36.1303 10.4784 36.4722 10.5639L37.9814 10.9422C38.3233 11.028 38.5263 11.3568 38.4347 11.6767Z" fill="#007FFC"/>
</svg>
